<?xml version="1.0" encoding="UTF-8" standalone="no"?>
<!-- Created with Inkscape (http://www.inkscape.org/) -->

<svg
   xmlns:dc="http://purl.org/dc/elements/1.1/"
   xmlns:cc="http://creativecommons.org/ns#"
   xmlns:rdf="http://www.w3.org/1999/02/22-rdf-syntax-ns#"
   xmlns:svg="http://www.w3.org/2000/svg"
   xmlns="http://www.w3.org/2000/svg"
   xmlns:sodipodi="http://sodipodi.sourceforge.net/DTD/sodipodi-0.dtd"
   xmlns:inkscape="http://www.inkscape.org/namespaces/inkscape"
   width="210mm"
   height="297mm"
   viewBox="0 0 210 297"
   version="1.1"
   id="svg8"
   sodipodi:docname="beeLogo.svg"
   inkscape:version="0.92.4 5da689c313, 2019-01-14">
  <defs
     id="defs2">
    <clipPath
       clipPathUnits="userSpaceOnUse"
       id="clipPath109">
      <circle
         style="fill:#1a1a1a;stroke-width:0.26458332"
         id="circle111"
         cx="29.146877"
         cy="64.63607"
         r="26.458334"
         transform="rotate(-30)" />
    </clipPath>
  </defs>
  <sodipodi:namedview
     id="base"
     pagecolor="#ffffff"
     bordercolor="#666666"
     borderopacity="1.0"
     inkscape:pageopacity="0.0"
     inkscape:pageshadow="2"
     inkscape:zoom="1.4"
     inkscape:cx="589.41311"
     inkscape:cy="881.84197"
     inkscape:document-units="mm"
     inkscape:current-layer="g4691"
     showgrid="false"
     inkscape:window-width="1600"
     inkscape:window-height="875"
     inkscape:window-x="0"
     inkscape:window-y="25"
     inkscape:window-maximized="0" />
  <metadata
     id="metadata5">
    <rdf:RDF>
      <cc:Work
         rdf:about="">
        <dc:format>image/svg+xml</dc:format>
        <dc:type
           rdf:resource="http://purl.org/dc/dcmitype/StillImage" />
      </cc:Work>
    </rdf:RDF>
  </metadata>
  <g
     inkscape:label="Layer 1"
     inkscape:groupmode="layer"
     id="layer1">
    <circle
       style="fill:#1a1a1a;stroke-width:0.26458332"
       id="path10-3"
       cx="-126.13103"
       cy="-82.18853"
       r="26.458334"
       transform="rotate(-30)" />
    <rect
       style="fill:#ffd42a;stroke-width:0.26458332"
       id="rect12-6"
       width="95.25"
       height="6.8035712"
       x="-198.08205"
       y="-25.058245" />
    <rect
       y="-18.254671"
       x="-198.08205"
       height="6.8035712"
       width="95.25"
       id="rect14-7"
       style="fill:#ffd42a;stroke-width:0.26458332" />
    <rect
       style="fill:#ffd42a;stroke-width:0.26458332"
       id="rect16-5"
       width="95.25"
       height="6.8035712"
       x="-198.08205"
       y="-11.451104" />
    <rect
       y="-4.6475306"
       x="-198.08205"
       height="6.8035712"
       width="95.25"
       id="rect18-3"
       style="fill:#ffd42a;stroke-width:0.26458332" />
    <rect
       style="fill:#ffd42a;stroke-width:0.26458332"
       id="rect20-5"
       width="95.25"
       height="6.8035712"
       x="-198.08205"
       y="2.1560354" />
    <rect
       y="8.9596167"
       x="-198.08205"
       height="6.8035712"
       width="95.25"
       id="rect22-6"
       style="fill:#ffd42a;stroke-width:0.26458332" />
    <rect
       style="fill:#ffd42a;stroke-width:0.26458332"
       id="rect24-2"
       width="95.25"
       height="6.8035712"
       x="-198.08205"
       y="-18.254671" />
    <rect
       y="-31.861818"
       x="-198.08205"
       height="6.8035712"
       width="95.25"
       id="rect26-9"
       style="fill:#ffd42a;stroke-width:0.26458332" />
    <g
       id="g4682"
       transform="translate(83.749122,16.257311)"
       style="fill:#ff6600;fill-opacity:1">
      <g
         id="g4691">
        <path
           id="path4673"
           style="fill:#f4d041;fill-opacity:1;stroke:#ffffff;stroke-width:2.765;stroke-miterlimit:4;stroke-dasharray:none;stroke-opacity:1"
           d="m 41.484651,76.647954 -20.225258,-10e-7 -10.112628,-17.515588 10.11263,-17.515586 20.225257,10e-7 10.112629,17.515587 z m 60.675779,0 -20.225262,-10e-7 -10.112628,-17.515588 10.11263,-17.515586 20.22526,10e-7 10.11263,17.515587 z m -30.337891,17.51559 -20.225257,-10e-7 -10.112629,-17.515587 10.11263,-17.515587 20.225258,1e-6 10.112628,17.515588 z M 102.16043,41.61678 81.935168,41.616779 71.82254,24.101191 81.93517,6.5856049 l 20.22526,1e-6 10.11263,17.5155871 z m -60.675777,-2e-6 -20.225258,-10e-7 L 11.146767,24.10119 21.259396,6.585603 l 20.225258,9e-7 10.112628,17.5155881 z m 30.337886,-17.515586 -20.225257,-1e-6 -10.112629,-17.5155873 10.11263,-17.5155867 20.225258,10e-7 10.112628,17.5155877 z m 0,35.031175 -20.225257,-1e-6 -10.112629,-17.515588 10.11263,-17.515586 20.225258,10e-7 10.112628,17.515587 z" />
      </g>
    </g>
    <g
       id="g4702"
       transform="translate(32.874152,-0.80180861)">
      <ellipse
         style="fill:#9dffff;fill-opacity:1;stroke-width:0.26458332"
         id="ellipse123"
         cx="-1.8305384"
         cy="42.217213"
         rx="6.6697969"
         ry="15.599491" />
      <ellipse
         ry="15.599491"
         rx="6.6697969"
         cy="42.217213"
         cx="-38.510921"
         id="path121"
         style="fill:#9dffff;fill-opacity:1;stroke-width:0.26458332" />
      <g
         transform="matrix(0.58078673,0,0,1,-53.782982,-0.91251525)"
         id="g119">
        <circle
           r="26.458334"
           cy="64.63607"
           cx="29.146873"
           id="circle67"
           style="fill:#1a1a1a;stroke-width:0.26458332"
           transform="rotate(-30)" />
        <g
           id="g89"
           clip-path="url(#clipPath109)">
          <rect
             y="44.867352"
             x="9.8048582"
             height="6.8035712"
             width="95.25"
             id="rect75"
             style="fill:#f4d041;fill-opacity:1;stroke-width:0.26458332" />
          <rect
             y="58.474499"
             x="9.8048582"
             height="14.688023"
             width="95.25"
             id="rect79"
             style="fill:#f4d041;fill-opacity:1;stroke-width:0.3887547" />
          <rect
             style="fill:#f4d041;fill-opacity:1;stroke-width:0.26458332"
             id="rect81"
             width="95.25"
             height="6.8035712"
             x="9.8048582"
             y="31.26021" />
          <rect
             y="12.441307"
             x="9.8048582"
             height="12.015327"
             width="95.25"
             id="rect83"
             style="fill:#f4d041;fill-opacity:1;stroke-width:0.35161045" />
        </g>
      </g>
    </g>
  </g>
</svg>
